<svg
 xmlns="http://www.w3.org/2000/svg"
 xmlns:xlink="http://www.w3.org/1999/xlink"
 width="13px" height="13px">
<path fill-rule="evenodd"  fill="rgb(36, 34, 45)"
 d="M12.113,8.829 C12.086,9.429 11.989,9.839 11.850,10.199 C11.557,10.958 10.957,11.558 10.198,11.851 C9.840,11.990 9.428,12.087 8.828,12.114 C8.225,12.140 8.033,12.147 6.500,12.147 C4.967,12.147 4.775,12.140 4.172,12.114 C3.572,12.087 3.162,11.990 2.802,11.851 C2.427,11.710 2.085,11.487 1.803,11.200 C1.516,10.918 1.293,10.578 1.150,10.199 C1.011,9.841 0.914,9.429 0.887,8.829 C0.861,8.226 0.854,8.034 0.854,6.501 C0.854,4.968 0.861,4.776 0.889,4.171 C0.916,3.571 1.013,3.161 1.152,2.801 C1.293,2.426 1.516,2.084 1.803,1.802 C2.085,1.513 2.425,1.292 2.805,1.149 C3.162,1.010 3.575,0.913 4.175,0.886 C4.777,0.860 4.969,0.853 6.502,0.853 C8.036,0.853 8.227,0.860 8.832,0.889 C9.432,0.915 9.843,1.012 10.202,1.151 C10.577,1.292 10.919,1.515 11.202,1.802 C11.491,2.084 11.711,2.424 11.855,2.803 C11.994,3.161 12.091,3.574 12.117,4.174 C12.144,4.776 12.146,4.968 12.146,6.501 C12.146,8.034 12.139,8.226 12.113,8.829 ZM6.502,4.619 C5.463,4.619 4.620,5.462 4.620,6.501 C4.620,7.540 5.463,8.383 6.502,8.383 C7.541,8.383 8.384,7.540 8.384,6.501 C8.384,5.462 7.541,4.619 6.502,4.619 ZM9.518,2.808 C9.144,2.808 8.841,3.111 8.841,3.485 C8.841,3.859 9.144,4.162 9.518,4.162 C9.892,4.162 10.196,3.859 10.196,3.485 C10.196,3.111 9.892,2.808 9.518,2.808 Z"/>
</svg>