<svg
 xmlns="http://www.w3.org/2000/svg"
 xmlns:xlink="http://www.w3.org/1999/xlink"
 width="12px" height="17px">
<path fill-rule="evenodd"  fill="rgb(23, 26, 27)"
 d="M6.000,0.657 C2.867,0.657 0.319,3.205 0.319,6.338 C0.319,10.225 5.403,15.933 5.619,16.173 C5.823,16.400 6.178,16.400 6.381,16.173 C6.597,15.933 11.681,10.225 11.681,6.338 C11.681,3.205 9.133,0.657 6.000,0.657 ZM6.000,9.196 C4.424,9.196 3.142,7.914 3.142,6.338 C3.142,4.762 4.424,3.479 6.000,3.479 C7.576,3.479 8.858,4.762 8.858,6.338 C8.858,7.914 7.576,9.196 6.000,9.196 Z"/>
</svg>