<svg
 xmlns="http://www.w3.org/2000/svg"
 xmlns:xlink="http://www.w3.org/1999/xlink"
 width="15px" height="14px">
<path fill-rule="evenodd"  fill="rgb(23, 26, 27)"
 d="M14.063,10.254 L12.121,8.313 C11.428,7.619 10.249,7.897 9.972,8.798 C9.763,9.422 9.070,9.769 8.446,9.630 C7.059,9.284 5.187,7.481 4.840,6.024 C4.632,5.400 5.048,4.707 5.672,4.499 C6.574,4.221 6.851,3.043 6.157,2.349 L4.216,0.407 C3.661,-0.078 2.829,-0.078 2.343,0.407 L1.026,1.725 C-0.292,3.112 1.164,6.787 4.424,10.046 C7.683,13.306 11.358,14.831 12.745,13.444 L14.063,12.127 C14.548,11.572 14.548,10.740 14.063,10.254 Z"/>
</svg>