<svg
 xmlns="http://www.w3.org/2000/svg"
 xmlns:xlink="http://www.w3.org/1999/xlink"
 width="15px" height="10px">
<path fill-rule="evenodd" fill="rgb(36, 34, 45)"
 d="M14.346,8.174 C14.308,8.110 14.072,7.596 12.933,6.540 C11.742,5.433 11.902,5.613 13.337,3.700 C14.211,2.535 14.561,1.824 14.451,1.520 C14.347,1.230 13.704,1.306 13.704,1.306 L11.567,1.319 C11.567,1.319 11.408,1.298 11.290,1.368 C11.175,1.437 11.102,1.597 11.102,1.597 C11.102,1.597 10.763,2.499 10.311,3.265 C9.359,4.883 8.977,4.968 8.822,4.868 C8.460,4.634 8.550,3.927 8.550,3.425 C8.550,1.858 8.788,1.204 8.087,1.035 C7.854,0.979 7.683,0.942 7.088,0.936 C6.325,0.928 5.679,0.938 5.313,1.117 C5.070,1.236 4.882,1.502 4.997,1.517 C5.138,1.536 5.458,1.603 5.628,1.835 C5.848,2.133 5.840,2.803 5.840,2.803 C5.840,2.803 5.966,4.648 5.546,4.878 C5.257,5.035 4.861,4.714 4.012,3.246 C3.577,2.495 3.248,1.663 3.248,1.663 C3.248,1.663 3.185,1.508 3.072,1.426 C2.935,1.325 2.743,1.293 2.743,1.293 L0.710,1.306 C0.710,1.306 0.405,1.314 0.293,1.447 C0.193,1.565 0.285,1.809 0.285,1.809 C0.285,1.809 1.877,5.532 3.678,7.409 C5.331,9.130 7.208,9.017 7.208,9.017 L8.058,9.017 C8.058,9.017 8.315,8.989 8.445,8.847 C8.566,8.717 8.562,8.474 8.562,8.474 C8.562,8.474 8.545,7.333 9.075,7.165 C9.597,7.000 10.267,8.267 10.978,8.756 C11.515,9.125 11.923,9.044 11.923,9.044 L13.824,9.017 C13.824,9.017 14.818,8.955 14.346,8.174 Z"/>
</svg>