<svg
 xmlns="http://www.w3.org/2000/svg"
 xmlns:xlink="http://www.w3.org/1999/xlink"
 width="48px" height="45px">
<path fill-rule="evenodd"  fill="rgb(255, 255, 255)"
 d="M47.616,43.547 L46.202,44.962 L34.276,33.036 C30.728,37.094 25.527,39.670 19.712,39.670 C9.023,39.670 0.357,31.005 0.357,20.315 C0.357,9.625 9.023,0.960 19.712,0.960 C30.402,0.960 39.068,9.625 39.068,20.315 C39.068,24.466 37.749,28.303 35.524,31.455 L47.616,43.547 ZM19.703,2.846 C10.049,2.846 2.223,10.666 2.223,20.312 C2.223,29.959 10.049,37.779 19.703,37.779 C29.357,37.779 37.183,29.959 37.183,20.312 C37.183,10.666 29.357,2.846 19.703,2.846 Z"/>
</svg>